<svg width="126" height="48" viewBox="0 0 126 48" fill="none" xmlns="http://www.w3.org/2000/svg">
<g clip-path="url(#clip0_1_7)">
<path d="M15.1658 0.712119C16.6205 -0.356952 18.8483 -0.223543 20.1307 1.05285C20.9038 1.8497 21.655 2.66637 22.4263 3.46502C21.5927 4.26908 20.8031 5.12181 19.9219 5.87719C19.0388 5.15787 18.3041 4.2835 17.4504 3.53533C17.073 3.14592 16.408 3.48305 16.3548 3.97342C16.2303 4.35742 16.5674 4.63685 16.8092 4.88204C17.6446 5.68068 18.4599 6.50277 19.288 7.30862C19.6855 7.74491 20.3927 7.52136 20.739 7.13195C22.2962 5.59415 23.8535 4.05454 25.4162 2.52035C25.9347 2.01556 26.4293 1.45488 27.1017 1.14299C28.298 0.535443 29.7619 0.659838 30.9582 1.20068C33.4883 2.13815 34.2376 5.84294 32.3707 7.72688C31.7936 8.32181 31.1945 8.89511 30.6101 9.48282C33.3985 9.48102 36.1851 9.47922 38.9735 9.48282C40.5747 9.46299 42.0513 10.844 42.0587 12.4286C42.0733 16.3407 42.0641 20.2547 42.0641 24.1668C42.0916 25.1169 41.2159 25.9696 40.2522 25.9425C39.2574 25.9948 38.3744 25.115 38.3762 24.1469C38.3506 21.0803 38.3707 18.0138 38.3689 14.9454C38.4055 14.0205 37.5848 13.0722 36.6083 13.1227C31.6599 13.1227 26.7115 13.1227 21.7649 13.1227C24.4012 10.505 27.0376 7.88913 29.6794 5.27685C29.8846 5.06232 30.1319 4.82615 30.0587 4.49984C29.9176 4.16091 29.5512 4.03291 29.258 3.85804C29.0162 4.00587 28.7707 4.15009 28.571 4.3502C25.7148 7.26896 22.877 10.2058 20.0171 13.1209C16.4391 13.1299 12.8593 13.1155 9.28125 13.1263C8.13621 13.1299 7.4327 14.3036 7.38873 15.3185C7.37041 18.2391 7.39423 21.1615 7.37957 24.082C7.40522 25.0231 6.60827 25.9191 5.63728 25.9389C4.61499 26.0453 3.66049 25.1547 3.67698 24.1487C3.66965 20.2474 3.66781 16.3461 3.67881 12.4449C3.70629 10.8674 5.14079 9.47741 6.74751 9.48463C9.98476 9.4702 13.2238 9.49544 16.4629 9.47381C15.5744 8.62468 14.6822 7.77736 13.8486 6.87595C13.2074 6.18908 12.9216 5.22637 13.0223 4.30513C13.178 2.88632 13.9054 1.47832 15.1658 0.712119Z" fill="#FF4700"/>
<path d="M4.93195 31.1923C6.05684 30.7705 7.38142 31.6935 7.37226 32.8726C7.40707 35.7949 7.35944 38.7209 7.39241 41.6451C7.45654 42.5357 8.07944 43.6156 9.10539 43.5741C18.2749 43.5759 27.4443 43.5741 36.6138 43.5759C37.6361 43.6498 38.4513 42.6114 38.3707 41.6577C38.3616 38.8309 38.3671 36.0023 38.3652 33.1754C38.2975 32.3065 38.8287 31.3997 39.7118 31.1725C40.7836 30.812 42.0477 31.6773 42.0587 32.7951C42.0733 36.5864 42.0642 40.3795 42.0642 44.1708C42.1081 45.7843 40.637 47.2446 38.9955 47.2104C28.2376 47.214 17.4779 47.2176 6.72005 47.2086C5.09318 47.2248 3.66417 45.7699 3.67516 44.1798C3.6715 40.4444 3.66966 36.709 3.67516 32.9735C3.64585 32.1929 4.17715 31.4375 4.93195 31.1923Z" fill="#FF4700"/>
<path d="M17.6171 19.1027C17.6428 17.9705 18.8904 17.3233 19.9182 17.3251C22.058 17.3431 24.2015 17.3107 26.3414 17.3413C29.7179 17.5234 32.4751 20.6981 32.367 23.9811C32.411 27.2586 29.4156 30.0926 26.1508 30.2441C24.4635 30.2873 22.778 30.2351 21.0925 30.2729C21.0724 32.6815 21.1017 35.09 21.0797 37.4986C21.1035 38.4 20.2864 39.2005 19.3741 39.1896C18.447 39.2311 17.5841 38.4234 17.6134 37.504C17.597 35.0918 17.6171 32.6797 17.6043 30.2675C11.7344 30.2675 5.8626 30.2675 -0.00732142 30.2675C-0.00548936 29.1137 -0.00365909 27.9617 -0.00915527 26.8097C5.86443 26.8079 11.738 26.8115 17.6098 26.8061C17.6134 24.2389 17.5951 21.6699 17.6171 19.1027ZM21.0834 20.7703C21.0852 22.7786 21.0925 24.7869 21.0797 26.7935C22.5875 26.8277 24.0953 26.8097 25.6049 26.8133C26.9496 26.8566 28.2889 26.0002 28.7395 24.7419C29.3423 22.921 27.7741 20.7054 25.7918 20.7703C24.2235 20.7685 22.6534 20.7739 21.0834 20.7703Z" fill="#412020"/>
<path d="M45.9994 19.1045C45.9518 18.0047 47.1389 17.3233 48.1356 17.3359C49.9731 17.3521 51.8107 17.3233 53.6464 17.3521C55.3282 17.3846 56.9441 18.2337 57.9811 19.5245C59.4028 21.2408 59.815 23.7864 58.7597 25.7803C57.7777 27.7237 55.647 29.0326 53.4431 29.0632C52.0195 29.0849 50.5942 29.0632 49.1689 29.0704C49.1615 31.223 49.1762 33.3756 49.1652 35.5263C49.178 36.0654 48.905 36.6098 48.425 36.8856C47.7362 37.3147 46.7212 37.1254 46.2705 36.4458C45.9976 36.0726 45.9921 35.5984 45.9921 35.1603C46.0049 29.8078 45.9866 24.4552 45.9994 19.1045ZM49.1689 20.4962C49.167 22.3027 49.1689 24.1073 49.167 25.9137C50.5356 25.9119 51.906 25.9227 53.2745 25.9119C54.5166 25.9263 55.7496 25.0934 56.0776 23.8963C56.4678 22.3171 55.1469 20.4962 53.4559 20.5016C52.0269 20.4836 50.5979 20.5034 49.1689 20.4962Z" fill="#412020"/>
<path d="M94.5051 18.917C94.5197 18.0228 95.4138 17.2728 96.3151 17.4098C97.1487 17.4946 97.7918 18.277 97.7478 19.0936C97.7588 24.5111 97.7496 29.9268 97.7515 35.3442C97.8284 36.1862 97.1945 37.0245 96.3225 37.1002C95.5512 37.2354 94.8623 36.7288 94.5307 36.0798C92.6437 37.3057 90.1301 37.5184 88.0672 36.5972C85.5408 35.5209 83.8699 32.8023 84.1118 30.098C84.273 27.3181 86.433 24.8068 89.1811 24.165C90.9765 23.7016 92.9185 24.0748 94.4904 25.0177C94.4996 22.9841 94.4648 20.9487 94.5051 18.917ZM89.793 27.3235C88.4812 27.7057 87.4718 28.919 87.3692 30.2639C87.2409 31.4898 87.8675 32.7518 88.9246 33.4134C89.9634 34.0931 91.3851 34.1418 92.4715 33.5378C93.5212 32.9753 94.2284 31.8432 94.2467 30.6641C94.2944 29.5085 93.6806 28.3601 92.695 27.7345C91.8541 27.1793 90.7585 27.0315 89.793 27.3235Z" fill="#412020"/>
<path d="M113.258 18.6826C113.951 18.3797 114.845 18.5834 115.282 19.2072C115.839 19.9554 115.669 21.156 114.854 21.6608C114.159 22.1314 113.132 21.9565 112.622 21.3039C111.941 20.4926 112.241 19.0774 113.258 18.6826Z" fill="#412020"/>
<path d="M103.742 24.1109C107.069 23.4799 110.574 25.7929 111.311 29.0308C112.164 32.0775 110.321 35.5137 107.34 36.635C104.719 37.7257 101.452 36.9091 99.6825 34.7168C97.8376 32.5697 97.6837 29.2363 99.3087 26.9269C100.313 25.4431 101.952 24.3975 103.742 24.1109ZM103.872 27.4172C102.839 27.7147 101.982 28.5368 101.657 29.5464C101.311 30.5704 101.518 31.7602 102.207 32.6039C102.885 33.4675 104.024 33.9506 105.129 33.8443C106.359 33.7523 107.493 32.9248 107.938 31.7927C108.418 30.6407 108.158 29.2327 107.286 28.3295C106.445 27.419 105.063 27.0549 103.872 27.4172Z" fill="#412020"/>
<path d="M113.238 24.0406C114.238 23.543 115.598 24.2984 115.59 25.4233C115.616 28.7892 115.605 32.1569 115.596 35.5209C115.642 36.5467 114.553 37.4085 113.548 37.1218C112.813 36.9614 112.249 36.2673 112.267 35.5245C112.252 32.2109 112.26 28.8974 112.263 25.5838C112.232 24.9348 112.624 24.293 113.238 24.0406Z" fill="#412020"/>
<path d="M59.7949 25.6072C59.7582 24.585 60.9051 23.8224 61.8687 24.1379C62.3762 24.2497 62.6822 24.6842 62.9552 25.0808C65.3918 23.6025 68.7994 23.9865 70.7726 26.0417C71.1078 26.3806 71.1316 26.8728 71.1591 27.3181C72.5148 24.9744 75.5213 23.7142 78.1741 24.4173C79.0791 24.6427 79.8999 25.1096 80.6382 25.6649C80.7335 25.2647 80.7829 24.8158 81.1054 24.5201C81.7338 23.8765 82.9374 24.0568 83.4101 24.7977C83.7252 25.2466 83.6611 25.8145 83.6739 26.3301C83.6501 29.4562 83.6959 32.5823 83.6519 35.7084C83.6263 36.7702 82.2834 37.4427 81.3747 36.9055C80.8104 36.6044 80.6877 35.9409 80.6419 35.3677C79.1304 36.6621 76.9814 37.1488 75.0504 36.626C72.7255 36.0635 70.8312 34.1129 70.3805 31.7981C70.1277 30.5794 70.2523 29.294 70.7323 28.1456C70.1662 28.6413 69.2611 28.8324 68.6272 28.3421C67.9988 27.8463 67.2898 27.3794 66.4526 27.3649C64.7359 27.2279 63.1567 28.6774 63.0431 30.3414C62.9771 32.128 63.0706 33.9164 63.0028 35.7012C62.979 36.6044 62.0373 37.3183 61.1432 37.1452C60.35 37.0443 59.7472 36.2961 59.7875 35.5155C59.782 32.2127 59.7692 28.91 59.7949 25.6072ZM75.6861 27.4821C74.4422 27.8535 73.4822 29.0073 73.3906 30.2891C73.266 31.5655 74.0373 32.8473 75.208 33.3936C76.3695 33.9759 77.8718 33.7776 78.8373 32.914C79.8431 32.0631 80.2168 30.5722 79.6984 29.3643C79.1121 27.8463 77.2599 26.9503 75.6861 27.4821Z" fill="#412020"/>
<path d="M119.841 24.4246C121.581 24.0604 123.615 24.3128 124.936 25.5748C125.809 26.3824 125.328 28.0122 124.139 28.2087C123.344 28.443 122.739 27.8012 122.057 27.547C121.449 27.392 120.768 27.3704 120.183 27.6264C119.749 27.7904 119.48 28.398 119.841 28.7585C120.103 29.1515 120.643 29.038 121.052 29.083C122.239 29.074 123.507 29.2237 124.465 29.9826C125.562 30.7921 126.216 32.1785 126.037 33.5306C125.883 34.9819 124.86 36.2925 123.483 36.8261C121.706 37.5292 119.634 37.2444 117.972 36.3682C117.349 36.0203 116.649 35.5534 116.565 34.789C116.416 33.8966 117.19 32.9879 118.111 32.9897C118.868 32.9284 119.359 33.5955 120.024 33.819C120.78 34.0804 121.687 34.2193 122.415 33.8064C122.816 33.6027 123.025 33.006 122.684 32.6616C122.173 32.1208 121.354 32.3101 120.689 32.2488C119.416 32.2452 118.106 31.753 117.32 30.7362C116.239 29.4905 116.189 27.5633 117.082 26.2057C117.69 25.2557 118.749 24.6697 119.841 24.4246Z" fill="#412020"/>
</g>
<defs>
<clipPath id="clip0_1_7">
<rect width="126" height="48" fill="white"/>
</clipPath>
</defs>
</svg>
